<?xml version="1.0" standalone="no"?>
<!DOCTYPE svg PUBLIC "-//W3C//DTD SVG 20010904//EN"
 "http://www.w3.org/TR/2001/REC-SVG-20010904/DTD/svg10.dtd">
<svg version="1.0" xmlns="http://www.w3.org/2000/svg" viewBox="0 0 400.000000 375.000000" preserveAspectRatio="xMidYMid meet">

<g transform="translate(0.000000,375.000000) scale(0.100000,-0.100000)" fill="#000000" stroke="none">
<path d="M449 3643 c-21 -94 -24 -134 -24 -313 0 -211 12 -303 52 -419 14 -37
17 -93 18 -301 1 -227 3 -263 22 -330 11 -41 20 -76 18 -78 -6 -7 -116 133
-176 223 -77 115 -180 323 -219 444 -38 117 -60 241 -60 337 0 40 -4 75 -8 78
-18 11 -52 -88 -64 -179 -36 -286 95 -731 304 -1037 154 -224 314 -368 518
-462 47 -21 84 -46 98 -65 43 -59 132 -99 257 -116 85 -12 170 -68 209 -137
13 -24 4 -17 -37 28 -64 70 -80 78 -201 98 -115 19 -206 63 -238 113 l-22 37
-9 -39 c-13 -59 -2 -172 23 -238 38 -101 100 -157 201 -183 147 -38 201 -89
234 -226 29 -120 62 -196 134 -309 93 -143 156 -261 185 -346 38 -113 52 -132
109 -158 112 -51 274 -57 409 -15 83 25 104 50 148 175 35 101 71 169 173 330
85 134 97 160 137 300 17 61 43 127 57 148 29 42 121 92 190 102 81 13 158 85
198 185 20 51 32 212 18 249 -9 23 -10 23 -31 -13 -28 -48 -121 -92 -234 -112
-128 -21 -128 -21 -192 -87 -36 -37 -53 -50 -42 -32 47 75 117 117 225 134
111 18 160 39 215 95 35 34 84 67 156 103 132 67 219 131 320 241 213 230 362
519 434 843 46 210 44 437 -6 538 l-23 46 -8 -85 c-24 -276 -111 -520 -275
-770 -67 -102 -170 -235 -178 -228 -2 2 6 49 18 103 20 97 23 185 15 495 -1
25 11 84 25 132 15 47 32 124 39 170 16 106 15 354 0 438 -23 120 -43 200 -50
200 -4 0 -11 -69 -14 -152 -9 -204 -51 -477 -77 -493 -4 -2 -31 44 -59 102
-29 59 -82 152 -118 207 -64 98 -216 266 -241 266 -7 0 14 -31 45 -69 133
-159 234 -366 273 -561 30 -146 25 -370 -13 -511 -32 -124 -76 -232 -138 -344
-53 -96 -178 -276 -196 -282 -6 -2 -34 20 -63 49 -92 93 -180 316 -225 571
-25 138 -40 126 -31 -25 13 -228 47 -423 112 -645 20 -67 34 -128 31 -135 -4
-12 -269 -169 -310 -184 -14 -5 -23 7 -47 57 -58 126 -73 205 -74 401 -1 97
-4 174 -8 170 -12 -12 -66 -233 -88 -359 -11 -65 -25 -183 -31 -263 -6 -80
-13 -151 -15 -157 -2 -7 -22 -25 -44 -40 -23 -16 -56 -40 -75 -55 -29 -25 -40
-28 -110 -28 -63 0 -81 4 -99 20 -11 11 -46 37 -76 58 l-55 38 -3 59 c-4 102
-32 333 -53 439 -23 116 -71 296 -79 296 -3 0 -5 -82 -6 -183 -1 -154 -4 -194
-22 -261 -23 -83 -70 -187 -87 -193 -8 -2 -183 96 -314 176 -12 7 -8 29 22
132 69 236 104 434 114 650 7 145 -7 175 -26 57 -27 -166 -84 -356 -143 -475
-30 -61 -124 -173 -145 -173 -9 0 -106 129 -155 206 -45 71 -124 236 -150 314
-53 157 -63 223 -62 405 1 150 4 181 27 268 48 181 134 350 250 493 37 46 62
84 56 84 -24 0 -176 -167 -238 -260 -34 -52 -87 -146 -118 -207 -30 -62 -56
-113 -58 -113 -2 0 -11 24 -20 53 -25 81 -53 290 -61 451 -4 80 -10 146 -14
146 -4 0 -18 -48 -31 -107z"/>
</g>
</svg>
